{"title":"The NeverEnding Story.2012X.mp4","uid":6174729,"size":515234039,"categoryP":"video","categoryS":"handheld","magnet":"?xt=urn:btih:f2a79dcdc305655735c66607b4a52e6cad726d8b&amp;dn=The+NeverEnding+Story.2012X.mp4&amp;tr=udp%3A%2F%2Ftracker.openbittorrent.com%3A80&amp;tr=udp%3A%2F%2Fopen.demonii.com%3A1337&amp;tr=udp%3A%2F%2Ftracker.coppersurfer.tk%3A6969&amp;tr=udp%3A%2F%2Fexodus.desync.com%3A6969","seeders":0,"leechers":0,"uploader":"2012X","files":-1,"time":1297729629,"description":" &lt;a href=&quot;http://www.imdb.com/title/tt0088323/&quot; rel=&quot;nofollow&quot; target=&quot;_NEW&quot;&gt;http://www.imdb.com/title/tt0088323/&lt;/a&gt;\n\nEncoded for iPad, iPod touch(new)and iPhone4\n\nSource 720p BRRIP\n\nID                               : 1\nFormat                           : AVC\nFormat/Info                      : Advanced Video Codec\nFormat profile                   : &lt;a class=&quot;__cf_email__&quot; href=&quot;/cdn-cgi/l/email-protection&quot; data-cfemail=&quot;763b171f18363a455847&quot;&gt;[email&amp;#160;protected]&lt;/a&gt;&lt;script cf-hash='f9e31' type=&quot;text/javascript&quot;&gt;\n/* &lt;![CDATA[ */!function(){try{var t=&quot;currentScript&quot;in document?document.currentScript:function(){for(var t=document.getElementsByTagName(&quot;script&quot;),e=t.length;e--;)if(t[e].getAttribute(&quot;cf-hash&quot;))return t[e]}();if(t&amp;&amp;t.previousSibling){var e,r,n,i,c=t.previousSibling,a=c.getAttribute(&quot;data-cfemail&quot;);if(a){for(e=&quot;&quot;,r=parseInt(a.substr(0,2),16),n=2;a.length-n;n+=2)i=parseInt(a.substr(n,2),16)^r,e+=String.fromCharCode(i);e=document.createTextNode(e),c.parentNode.replaceChild(e,c)}}}catch(u){}}();/* ]]&gt; */&lt;/script&gt;\nFormat settings, CABAC           : Yes\nFormat settings, ReFrames        : 1 frame\nCodec ID                         : avc1\nCodec ID/Info                    : Advanced Video Coding\nDuration                         : 1h 33mn\nBit rate mode                    : Variable\nBit rate                         : 600 Kbps\nWidth                            : 960 pixels\nHeight                           : 640 pixels\nDisplay aspect ratio             : 16:9\nFrame rate mode                  : Constant\nFrame rate                       : 23.976 fps\nColor space                      : YUV\nChroma subsampling               : 4:2:0\nBit depth                        : 8 bits\nScan type                        : Progressive\nBits/(Pixel*Frame)               : 0.041\nStream size                      : 402 MiB (82%)\n\nID                               : 2\nFormat                           : AAC\nFormat/Info                      : Advanced Audio Codec\nFormat version                   : Version 4\nFormat profile                   : LC\nFormat settings, SBR             : No\nCodec ID                         : 40\nDuration                         : 1h 33mn\nBit rate mode                    : Variable\nBit rate                         : 128 Kbps\nChannel(s)                       : 2 channels\nChannel positions                : Front: L R\nSampling rate                    : 44.1 KHz\nStream size                      : 86.0 MiB (18%)\nLanguage                         : English\n &lt;a href=&quot;\nhttp://img407.imageshack.us/img407/5450/vlcsnap2011021423h58m24.png&quot; rel=&quot;nofollow&quot; target=&quot;_NEW&quot;&gt;\nhttp://img407.imageshack.us/img407/5450/vlcsnap2011021423h58m24.png&lt;/a&gt;\n &lt;a href=&quot;\nhttp://img585.imageshack.us/img585/2173/vlcsnap2011021423h58m30.png&quot; rel=&quot;nofollow&quot; target=&quot;_NEW&quot;&gt;\nhttp://img585.imageshack.us/img585/2173/vlcsnap2011021423h58m30.png&lt;/a&gt;\n &lt;a href=&quot;\nhttp://img62.imageshack.us/img62/8038/vlcsnap2011021423h58m34.png&quot; rel=&quot;nofollow&quot; target=&quot;_NEW&quot;&gt;\nhttp://img62.imageshack.us/img62/8038/vlcsnap2011021423h58m34.png&lt;/a&gt;\n &lt;a href=&quot;\nhttp://img138.imageshack.us/img138/3511/vlcsnap2011021423h58m38.png&quot; rel=&quot;nofollow&quot; target=&quot;_NEW&quot;&gt;\nhttp://img138.imageshack.us/img138/3511/vlcsnap2011021423h58m38.png&lt;/a&gt;\n &lt;a href=&quot;\nhttp://img543.imageshack.us/img543/5664/vlcsnap2011021423h58m42.png&quot; rel=&quot;nofollow&quot; target=&quot;_NEW&quot;&gt;\nhttp://img543.imageshack.us/img543/5664/vlcsnap2011021423h58m42.png&lt;/a&gt;\n &lt;a href=&quot;\nhttp://img405.imageshack.us/img405/8854/vlcsnap2011021423h58m50.png&quot; rel=&quot;nofollow&quot; target=&quot;_NEW&quot;&gt;\nhttp://img405.imageshack.us/img405/8854/vlcsnap2011021423h58m50.png&lt;/a&gt;\n\n\n","torrent":{"xt":"urn:btih:f2a79dcdc305655735c66607b4a52e6cad726d8b","amp;dn":"The+NeverEnding+Story.2012X.mp4","amp;tr":["udp%3A%2F%2Ftracker.openbittorrent.com%3A80","udp%3A%2F%2Fopen.demonii.com%3A1337","udp%3A%2F%2Ftracker.coppersurfer.tk%3A6969","udp%3A%2F%2Fexodus.desync.com%3A6969"],"infoHash":"f2a79dcdc305655735c66607b4a52e6cad726d8b","infoHashBuffer":{"type":"Buffer","data":[242,167,157,205,195,5,101,87,53,198,102,7,180,165,46,108,173,114,109,139]},"announce":[],"urlList":[]}}